<?xml version="1.0" encoding="UTF-8" standalone="no"?>
<!-- Created with Inkscape (http://www.inkscape.org/) -->

<svg
   width="210mm"
   height="297mm"
   viewBox="0 0 210 297"
   version="1.1"
   id="svg1"
   xml:space="preserve"
   inkscape:version="1.4 (86a8ad7, 2024-10-11)"
   sodipodi:docname="logo.svg"
   xmlns:inkscape="http://www.inkscape.org/namespaces/inkscape"
   xmlns:sodipodi="http://sodipodi.sourceforge.net/DTD/sodipodi-0.dtd"
   xmlns:xlink="http://www.w3.org/1999/xlink"
   xmlns="http://www.w3.org/2000/svg"
   xmlns:svg="http://www.w3.org/2000/svg"><sodipodi:namedview
     id="namedview1"
     pagecolor="#505050"
     bordercolor="#eeeeee"
     borderopacity="1"
     inkscape:showpageshadow="0"
     inkscape:pageopacity="0"
     inkscape:pagecheckerboard="0"
     inkscape:deskcolor="#505050"
     inkscape:document-units="mm"
     inkscape:zoom="0.70710678"
     inkscape:cx="285.67114"
     inkscape:cy="577.70624"
     inkscape:window-width="1920"
     inkscape:window-height="999"
     inkscape:window-x="-8"
     inkscape:window-y="50"
     inkscape:window-maximized="1"
     inkscape:current-layer="g3" /><defs
     id="defs1"><linearGradient
       id="linearGradient12887"
       inkscape:collect="always"><stop
         style="stop-color:#672d72;stop-opacity:1;"
         offset="0.13562754"
         id="stop12887" /><stop
         style="stop-color:#5a4784;stop-opacity:1;"
         offset="0.23380567"
         id="stop12892" /><stop
         style="stop-color:#1072bd;stop-opacity:1;"
         offset="0.39068827"
         id="stop12890" /><stop
         style="stop-color:#1072bd;stop-opacity:1;"
         offset="0.66194332"
         id="stop12891" /><stop
         style="stop-color:#5a4784;stop-opacity:1;"
         offset="0.84008098"
         id="stop12893" /><stop
         style="stop-color:#672d72;stop-opacity:1;"
         offset="0.96558708"
         id="stop12889" /></linearGradient><linearGradient
       inkscape:collect="always"
       xlink:href="#linearGradient12887"
       id="linearGradient12888"
       x1="139.8654"
       y1="270.91727"
       x2="56.690891"
       y2="139.08864"
       gradientUnits="userSpaceOnUse"
       gradientTransform="translate(-28.437477,-58.371664)" /></defs><g
     inkscape:label="Capa 1"
     inkscape:groupmode="layer"
     id="layer1"><g
       id="g3"
       transform="translate(34.283559,2.9811794)"><path
         style="fill:url(#linearGradient12888);fill-opacity:1;stroke:none;stroke-opacity:1"
         d="m 70.042959,210.04351 c -0.270626,-0.47379 -0.356675,-7.1787 -0.421535,-32.8459 -0.04876,-19.295 0.01586,-32.34794 0.160861,-32.49294 0.146753,-0.14676 0.648572,-0.0329 1.272125,0.28859 0.566373,0.29202 1.625073,0.78451 2.352683,1.09441 0.7276,0.3099 2.79755,1.09876 4.59989,1.75302 1.80234,0.65426 4.00499,1.40783 4.89479,1.67461 0.8898,0.26677 2.39172,0.66527 3.33761,0.88555 0.94589,0.22028 2.79135,0.55493 4.10104,0.74365 1.30969,0.18872 4.10766,0.33857 6.21771,0.333 2.33551,-0.006 4.906527,-0.18763 6.571587,-0.4638 1.50433,-0.24951 3.52839,-0.6369 4.49792,-0.86088 0.96953,-0.22398 2.53669,-0.65395 3.48257,-0.95549 0.94589,-0.30155 2.71702,-0.9476 3.93586,-1.43568 1.21883,-0.48807 2.55829,-0.88741 2.97656,-0.88741 0.54972,0 0.75917,0.12833 0.7557,0.46302 -0.003,0.25466 -0.33441,1.05833 -0.73727,1.78594 -0.40287,0.7276 -3.41383,4.95432 -6.69103,9.39271 -3.27719,4.43838 -7.55909,10.10557 -9.51532,12.59375 -1.956227,2.48817 -6.235687,8.01669 -9.509907,12.28558 -3.27422,4.2689 -7.67953,10.04563 -9.78959,12.83719 -2.11005,2.79156 -4.55083,5.95427 -5.42396,7.02825 -0.87312,1.07398 -2.64406,3.17342 -3.93543,4.66542 -1.29136,1.492 -2.448033,2.71273 -2.570373,2.71273 -0.122351,0 -0.37547,-0.26789 -0.562491,-0.59532 z m -9.071289,-13.1298 c -1.958364,-0.9504 -4.087567,-2.24953 -5.556484,-3.39027 -1.309816,-1.01719 -3.218476,-2.74567 -4.241467,-3.84108 -1.022991,-1.09541 -2.245599,-2.51356 -2.716906,-3.15145 -0.471308,-0.63789 -1.390382,-1.90427 -2.042388,-2.81418 -0.652005,-0.90992 -1.185464,-1.77312 -1.185464,-1.91823 0,-0.14511 0.0893,-0.26365 0.198438,-0.26342 0.10914,2.3e-4 1.031875,0.78822 2.05052,1.75108 1.018646,0.96287 3.10224,2.69692 4.630209,3.85346 1.711808,1.29569 4.081809,2.75091 6.174672,3.79137 1.868101,0.92871 4.042399,1.8331 4.831773,2.00975 0.789373,0.17666 1.538088,0.45076 1.66381,0.60912 0.125721,0.15836 0.284669,1.20509 0.353217,2.32606 0.07562,1.23666 0.01572,2.14705 -0.152337,2.3151 -0.152332,0.15234 -0.401984,0.27395 -0.55478,0.27026 -0.152797,-0.004 -1.706563,-0.7001 -3.452813,-1.54757 z m 0.661458,-12.98392 c -1.236927,-0.26292 -3.260989,-0.86945 -4.497916,-1.34784 -1.236928,-0.47838 -2.78474,-1.16518 -3.439584,-1.52622 -0.654844,-0.36104 -2.213855,-1.35377 -3.46447,-2.20608 -1.294602,-0.88228 -3.465456,-2.77425 -5.040816,-4.39325 -1.521833,-1.56399 -3.244082,-3.49846 -3.827218,-4.29883 -0.583137,-0.80036 -1.508396,-2.19948 -2.056131,-3.10915 -0.547735,-0.90968 -0.957413,-1.8509 -0.910395,-2.0916 0.06425,-0.3289 0.7429,0.0903 2.731321,1.68719 1.455209,1.16866 3.644445,2.80248 4.86497,3.63072 1.220525,0.82824 3.661307,2.20474 5.423959,3.05889 2.034468,0.98586 4.315974,1.84405 6.24753,2.35 1.67349,0.43835 3.816615,0.92831 4.7625,1.08879 0.945886,0.16048 1.928151,0.35316 2.182813,0.42818 0.411223,0.12114 0.463021,0.53398 0.463021,3.69044 0,3.5148 -0.0066,3.55384 -0.595313,3.53543 -0.327422,-0.0102 -1.607344,-0.23374 -2.844271,-0.49667 z m -3.439583,-15.5449 c -0.509323,-0.0597 -2.290519,-0.41124 -3.958214,-0.78118 -1.667694,-0.36995 -3.870351,-0.97163 -4.894792,-1.33707 -1.024441,-0.36545 -2.696057,-1.09634 -3.714703,-1.62421 -1.018646,-0.52787 -2.864115,-1.71971 -4.101042,-2.64855 -1.236927,-0.92884 -3.301181,-2.71644 -4.587231,-3.97245 -1.286049,-1.256 -3.123856,-3.28156 -4.084015,-4.50124 -0.960159,-1.21968 -2.378483,-3.36279 -3.151832,-4.76247 -0.773349,-1.39968 -1.406089,-2.75325 -1.406089,-3.00793 0,-0.25468 0.11492,-0.46305 0.255377,-0.46305 0.140457,0 0.646473,0.33769 1.124479,0.75043 0.478006,0.41273 2.238321,1.78592 3.911811,3.05152 1.67349,1.2656 4.195252,2.8934 5.603916,3.61732 1.408665,0.72393 3.55179,1.74472 4.7625,2.26843 1.210711,0.52371 2.55848,1.06256 2.995043,1.19744 0.436562,0.13488 1.865312,0.52567 3.175,0.86842 1.309687,0.34276 3.393281,0.81895 4.630208,1.0582 1.236928,0.23926 4.034896,0.52035 6.217709,0.62465 3.96875,0.18963 3.96875,0.18963 3.96875,4.95213 0,4.7625 0,4.7625 -2.910417,4.79034 -1.600729,0.0153 -3.327135,-0.021 -3.836458,-0.0807 z M 54.62167,150.58291 c -2.037292,-0.10425 -4.716198,-0.39723 -5.953125,-0.65106 -1.236928,-0.25383 -2.903803,-0.64023 -3.704167,-0.85868 -0.800365,-0.21845 -1.99099,-0.57078 -2.645834,-0.78295 -0.654844,-0.21218 -2.530488,-1.02745 -4.1681,-1.81172 -1.637611,-0.78426 -3.89261,-2.05785 -5.011109,-2.8302 -1.118499,-0.77235 -2.883022,-2.23771 -3.921162,-3.25635 -1.03814,-1.01865 -2.684611,-2.79553 -3.658824,-3.94864 -0.974213,-1.15311 -2.202091,-2.74557 -2.728619,-3.53882 -0.526527,-0.79325 -1.595917,-2.73387 -2.376421,-4.31249 -0.780505,-1.57862 -1.419099,-2.99248 -1.419099,-3.14191 0,-0.14942 0.06751,-0.27168 0.150014,-0.27168 0.08251,0 0.826648,0.59282 1.653646,1.31739 0.826997,0.72456 2.753788,2.21406 4.281757,3.30998 1.527969,1.09593 4.206875,2.69459 5.953125,3.55258 1.74625,0.858 4.187032,1.92389 5.423959,2.36865 1.236927,0.44477 3.380052,1.11024 4.7625,1.47883 1.382448,0.36858 3.763698,0.85658 5.291667,1.08442 1.527969,0.22784 4.385469,0.42167 6.35,0.43072 1.964531,0.009 5.179219,-0.18782 7.14375,-0.4375 1.964532,-0.24967 4.048125,-0.62609 4.630209,-0.83647 0.582083,-0.21038 2.013295,-0.66719 3.18047,-1.01515 1.167176,-0.34795 4.084206,-1.48369 6.482296,-2.52386 2.39808,-1.04018 6.20562,-2.669 8.4612,-3.61961 2.25557,-0.95061 5.29166,-2.12296 6.74687,-2.60522 1.45521,-0.48225 3.37145,-1.06298 4.25832,-1.2905 0.88686,-0.22751 2.55374,-0.60128 3.70417,-0.83058 1.15042,-0.2293 3.548847,-0.51093 5.329827,-0.62584 1.78098,-0.11491 4.34082,-0.11541 5.68854,-0.001 1.3604,0.11537 3.44627,0.52292 4.68922,0.91621 1.23135,0.38962 2.82633,1.02268 3.5444,1.4068 0.71806,0.38412 1.87661,1.20927 2.57456,1.83368 0.73986,0.6619 1.60634,1.81035 2.078,2.75424 0.60287,1.20644 0.809,1.98341 0.809,3.04929 0,0.78669 -0.12325,1.66064 -0.27389,1.94212 -0.15064,0.28147 -0.41853,0.507 -0.59531,0.50116 -0.17678,-0.006 -0.78977,-0.60409 -1.3622,-1.32944 -0.57243,-0.72536 -1.67915,-1.74256 -2.45939,-2.26045 -0.78024,-0.51789 -2.21651,-1.1698 -3.19172,-1.44869 -0.9752,-0.27888 -2.46435,-0.50706 -3.30921,-0.50706 -0.84486,0 -2.39305,0.18783 -3.44042,0.4174 -1.04738,0.22956 -2.4401,0.6023 -3.09494,0.8283 -0.65485,0.226 -2.36511,0.88029 -3.80059,1.45398 -1.435477,0.57369 -3.853997,1.62545 -5.374487,2.33724 -1.52048,0.7118 -4.99796,2.48906 -7.72772,3.94946 -4.18843,2.24078 -5.14997,2.65529 -6.15962,2.65529 -0.65802,0 -1.84012,-0.22246 -2.62689,-0.49434 -0.78676,-0.27189 -2.02579,-0.76054 -2.7534,-1.08588 -0.7276,-0.32535 -2.89625,-1.35306 -4.819233,-2.28379 -2.234293,-1.08142 -3.827143,-1.69224 -4.412868,-1.69224 -0.504109,0 -1.103661,0.1871 -1.332336,0.41577 -0.352064,0.35206 -0.415774,1.28313 -0.415774,6.07611 0,5.12262 -0.04399,5.68322 -0.463021,5.90126 -0.254662,0.13251 -1.772708,0.29943 -3.373438,0.37093 -1.600729,0.0715 -4.577292,0.0447 -6.614583,-0.0596 z m 70.68468,-18.98836 c -0.0699,-0.25466 -0.20606,-0.92936 -0.30268,-1.49934 -0.0966,-0.56998 -0.5338,-1.9392 -0.97153,-3.04271 -0.43773,-1.10351 -1.20751,-2.68502 -1.71062,-3.51446 -0.50311,-0.82944 -1.68232,-2.21143 -2.62048,-3.07107 -0.93815,-0.85965 -2.4512,-1.92361 -3.36234,-2.36435 -0.91114,-0.44075 -2.31146,-0.96377 -3.11182,-1.16226 -0.92024,-0.22823 -2.96285,-0.35899 -5.55625,-0.35569 -2.91015,0.004 -4.7416,0.14185 -6.30689,0.47574 -1.21322,0.25879 -3.616467,0.87654 -5.340567,1.37279 -1.72409,0.49625 -5.49395,1.8489 -8.37748,3.0059 -2.88352,1.157 -6.67152,2.69242 -8.41777,3.41205 -1.74625,0.71962 -4.78234,1.86639 -6.74687,2.54837 -1.964543,0.68198 -5.000633,1.58697 -6.746883,2.01109 -1.74625,0.42412 -4.224996,0.95377 -5.508325,1.17701 -1.283328,0.22324 -4.230896,0.55018 -6.55015,0.72653 -3.275011,0.24902 -5.135994,0.25057 -8.332255,0.007 -2.311016,-0.17616 -5.462329,-0.61578 -7.18738,-1.00268 -1.689573,-0.37894 -4.093343,-1.04548 -5.341712,-1.48121 -1.24837,-0.43573 -3.381801,-1.38184 -4.740958,-2.10246 -1.359158,-0.72062 -3.145096,-1.79867 -3.96875,-2.39566 -0.823655,-0.59699 -2.018166,-1.5751 -2.654469,-2.17358 -0.636303,-0.59848 -1.841418,-1.93992 -2.678034,-2.98098 -0.836615,-1.04107 -2.23448,-3.30326 -3.106366,-5.02709 -0.871886,-1.72383 -1.866025,-3.93139 -2.209197,-4.90569 -0.343173,-0.97429 -0.543601,-1.8518 -0.445397,-1.95 0.0982,-0.0982 1.166364,0.82494 2.373689,2.05143 1.207325,1.22649 2.849979,2.71896 3.650344,3.3166 0.800365,0.59765 2.288646,1.50069 3.307292,2.00675 1.018646,0.50607 3.016091,1.29064 4.438767,1.74348 1.422676,0.45285 3.684864,1.03007 5.027084,1.28273 1.800839,0.33898 3.792526,0.45769 7.599774,0.45298 2.841432,-0.004 6.229196,-0.16266 7.540626,-0.35422 1.309687,-0.19131 3.795938,-0.64155 5.525001,-1.00054 1.729063,-0.35899 4.586563,-1.06662 6.35,-1.57252 1.763437,-0.50589 4.634999,-1.40574 6.381249,-1.99965 1.746251,-0.59391 4.365626,-1.55384 5.820837,-2.13318 1.455213,-0.57934 4.590203,-1.7594 6.966663,-2.62235 2.37646,-0.86295 5.82927,-1.97887 7.67292,-2.47982 1.84365,-0.50095 4.60224,-1.16243 6.13021,-1.46997 1.96163,-0.39482 4.21672,-0.5997 7.67292,-0.69709 3.787357,-0.10673 5.441647,-0.0427 7.311937,0.28306 1.32943,0.23155 3.41302,0.73321 4.6302,1.11481 1.21719,0.38161 3.11104,1.15826 4.20858,1.7259 1.09753,0.56764 2.95262,1.79786 4.12242,2.73381 1.16979,0.93596 2.63619,2.37629 3.25866,3.20074 0.62246,0.82445 1.47853,2.2638 1.90238,3.19857 0.42384,0.93476 1.00806,2.67896 1.29826,3.876 0.29021,1.19704 0.60287,3.27062 0.6948,4.60795 0.10092,1.46812 0.0402,3.25025 -0.1533,4.49792 -0.17625,1.13652 -0.38035,2.27476 -0.45357,2.52942 -0.0732,0.25466 -0.29567,0.46302 -0.49433,0.46302 -0.19867,0 -0.41838,-0.20836 -0.48824,-0.46302 z m 4.53458,-12.76614 c -0.0976,-0.21828 -0.44549,-1.70656 -0.773,-3.30729 -0.3275,-1.60073 -0.9265,-3.65765 -1.33111,-4.57094 -0.4046,-0.91328 -1.11936,-2.22297 -1.58835,-2.91042 -0.46899,-0.68744 -1.57391,-2.00779 -2.45538,-2.9341 -0.88147,-0.92632 -2.22601,-2.08458 -2.98786,-2.57393 -0.76186,-0.48934 -2.07154,-1.2355 -2.91042,-1.65814 -0.83887,-0.42263 -2.52315,-1.083074 -3.74283,-1.467654 -1.21969,-0.38457 -2.70797,-0.80863 -3.30729,-0.94235 -0.59933,-0.13372 -2.63018,-0.37532 -4.513,-0.5369 -2.48653,-0.21337 -4.36901,-0.21498 -6.879167,-0.006 -1.90072,0.15835 -4.51648,0.46942 -5.8128,0.69127 -1.29632,0.22185 -3.67757,0.74712 -5.29166,1.16726 -1.6141,0.420144 -5.97082,1.736814 -9.6816,2.925924 -3.71078,1.18912 -7.461253,2.39136 -8.334376,2.67164 -0.873125,0.28028 -3.373438,1.03082 -5.55625,1.66787 -2.182813,0.63704 -5.754688,1.51888 -7.937501,1.95963 -2.182812,0.44075 -5.695156,1.00339 -7.805208,1.25032 -2.527976,0.29583 -5.776622,0.4444 -9.525001,0.43559 -3.794526,-0.009 -6.657573,-0.15571 -8.598958,-0.4409 -1.600729,-0.23515 -3.505729,-0.55596 -4.233334,-0.71292 -0.727604,-0.15696 -2.245987,-0.56944 -3.374184,-0.91662 -1.128197,-0.34718 -2.67601,-0.94721 -3.439583,-1.3334 -0.763574,-0.38619 -2.066374,-1.16192 -2.89511,-1.72384 -0.828737,-0.56192 -2.057553,-1.69779 -2.730701,-2.52415 -0.673147,-0.82636 -1.476308,-1.98723 -1.7848,-2.57971 -0.425978,-0.818134 -0.588249,-1.704344 -0.674609,-3.684274 -0.08461,-1.93987 0.004,-3.04208 0.34648,-4.30712 0.253107,-0.93505 0.900483,-2.3813 1.438614,-3.2139 0.53813,-0.83259 1.703869,-2.16861 2.59053,-2.96892 0.886661,-0.80032 2.28009,-1.85806 3.096509,-2.35055 0.816419,-0.49248 2.523795,-1.24836 3.794168,-1.67973 1.270373,-0.43137 3.798051,-1.01458 5.617061,-1.29603 2.364434,-0.36584 4.702722,-0.51326 8.202084,-0.51712 2.692136,-0.003 5.966354,0.11846 7.276042,0.26983 1.309688,0.15136 3.274219,0.39153 4.365625,0.53369 1.091406,0.14216 3.09992,0.49935 4.463364,0.79375 1.363444,0.29441 3.804225,0.89189 5.423959,1.32773 1.619733,0.43585 4.016532,1.14319 5.326219,1.57187 1.309688,0.42868 3.512344,1.19408 4.894792,1.70089 1.382448,0.5068 3.488328,1.34109 4.679728,1.85396 1.19139,0.51287 3.81077,1.76063 5.82083,2.7728 2.01006,1.01218 5.10667,2.67668 6.88135,3.69891 1.77467,1.02222 3.4723,1.93654 3.77249,2.03182 0.3002,0.0953 1.94381,-0.041 3.65248,-0.30286 2.26748,-0.34748 4.64328,-0.47595 8.795207,-0.47557 4.83757,4.3e-4 6.07065,0.0852 8.24285,0.56636 1.40487,0.31122 3.66276,1.00933 5.01753,1.55137 1.35477,0.54203 3.28288,1.47534 4.28469,2.074014 1.0018,0.59867 2.58922,1.72076 3.52758,2.49352 0.93836,0.77277 2.24493,2.13697 2.9035,3.03156 0.65856,0.89459 1.65424,2.58405 2.21262,3.75435 0.55839,1.1703 1.21342,3.08032 1.45564,4.24448 0.24221,1.16417 0.39972,2.83105 0.35003,3.70417 -0.0497,0.87313 -0.17024,1.40891 -0.26789,1.19063 z"
         id="path12876" /></g></g></svg>
